<?xml version="1.0" encoding="UTF-8"?>
<!DOCTYPE svg PUBLIC "-//W3C//DTD SVG 1.1//EN" "http://www.w3.org/Graphics/SVG/1.1/DTD/svg11.dtd">
<!-- Creator: CorelDRAW 2020 (64-Bit) -->
<svg xmlns="http://www.w3.org/2000/svg" xml:space="preserve" width="76.7305mm" height="17.2616mm" version="1.1" style="shape-rendering:geometricPrecision; text-rendering:geometricPrecision; image-rendering:optimizeQuality; fill-rule:evenodd; clip-rule:evenodd"
viewBox="0 0 3173.69 713.97"
 xmlns:xlink="http://www.w3.org/1999/xlink"
 xmlns:xodm="http://www.corel.com/coreldraw/odm/2003">
 <defs>
  <style type="text/css">
   <![CDATA[
    .fil0 {fill:#BA122B}
   ]]>
  </style>
 </defs>
 <g id="Layer_x0020_1">
  <metadata id="CorelCorpID_0Corel-Layer"/>
  <path class="fil0" d="M2459.72 0l713.97 0 0 713.97 -713.97 0 0 -713.97zm557.39 647.27l0 -580.72 -105.36 0 0 355.61 -213.74 -355.61 -93.99 0 0 580.72 105.36 0 0 -356.43 213.74 356.43 93.99 0zm-1377.29 -647.27l713.97 0 0 713.97 -713.97 0 0 -713.97zm401.74 647.27l0 -580.72 -113.37 0 0 580.72 113.37 0zm-1221.66 -647.27l713.97 0 0 713.97 -713.97 0 0 -713.97zm574.35 468.65l-115 0c-11.42,46.49 -40.78,82.38 -97.87,82.38 -30.99,0 -56.28,-11.42 -72.59,-30.18 -22.02,-24.47 -28.54,-52.2 -28.54,-163.94 0,-111.74 6.52,-139.47 28.54,-163.94 16.31,-18.75 41.6,-30.18 72.59,-30.18 57.09,0 86.45,35.89 97.87,82.38l115 0c-20.38,-121.52 -105.21,-183.51 -213.69,-183.51 -63.62,0 -115.82,22.84 -156.6,63.62 -58.72,58.72 -57.09,131.31 -57.09,231.63 0,100.32 -1.63,172.91 57.09,231.64 40.78,40.78 92.98,63.75 156.6,63.75 107.66,0 193.3,-62.12 213.69,-183.65zm-1394.26 -468.65l713.97 0 0 713.97 -713.97 0 0 -713.97zm615.14 647.27l-212.06 -580.72 -88.9 0 -211.25 580.72 118.26 0 35.07 -102.77 206.35 0 34.26 102.77 118.27 0zm-182.7 -198.2l-144.36 0 73.41 -211.24 70.95 211.24z"/>
 </g>
</svg>
